PathFileType	4	(X/Y/Z)	C:/Users/opensim2020/Desktop/walking_exp_matlab/subject02_walking16_run.trc	
DataRate	CameraRate	NumFrames	NumMarkers	Units	OrigDataRate	OrigDataStartFrame	OrigNumFrames	
100.00	100.00	4	51	mm	100.00	230	124	
Frame#	Time	RTOE			LSHO			LELB			RELB			RFIN			LTHI			LKNE			RWRB			RUPA			LTIB			RASI			LANK			LTOE			RSHO			RWRA			RFRM			LASI			STRN			LFHD			RTHI			RFHD			LWRB			LFIN			LUPA			RKNE			RBHD			LFRM			C7			LWRA			RTIB			CLAV			LHEE			RANK			LBHD			RBAK			RHEE			T10			LPSI			RPSI			*39			*40			*41			*42			*43			*44			*45			*46			*47			*48			*49			*50			
		X1	Y1	Z1	X2	Y2	Z2	X3	Y3	Z3	X4	Y4	Z4	X5	Y5	Z5	X6	Y6	Z6	X7	Y7	Z7	X8	Y8	Z8	X9	Y9	Z9	X10	Y10	Z10	X11	Y11	Z11	X12	Y12	Z12	X13	Y13	Z13	X14	Y14	Z14	X15	Y15	Z15	X16	Y16	Z16	X17	Y17	Z17	X18	Y18	Z18	X19	Y19	Z19	X20	Y20	Z20	X21	Y21	Z21	X22	Y22	Z22	X23	Y23	Z23	X24	Y24	Z24	X25	Y25	Z25	X26	Y26	Z26	X27	Y27	Z27	X28	Y28	Z28	X29	Y29	Z29	X30	Y30	Z30	X31	Y31	Z31	X32	Y32	Z32	X33	Y33	Z33	X34	Y34	Z34	X35	Y35	Z35	X36	Y36	Z36	X37	Y37	Z37	X38	Y38	Z38	X39	Y39	Z39	X40	Y40	Z40	X41	Y41	Z41	X42	Y42	Z42	X43	Y43	Z43	X44	Y44	Z44	X45	Y45	Z45	X46	Y46	Z46	X47	Y47	Z47	X48	Y48	Z48	X49	Y49	Z49	X50	Y50	Z50	X51	Y51	Z51	

78	0.770	140.93336	283.70062	52.20440	-112.27681	728.19843	1525.36633	-387.50317	606.28809	1397.88110	376.44745	832.43433	1239.25574	173.46303	1015.11487	1354.07251	-112.67204	873.76312	735.53479	-75.13850	935.22870	546.10944	202.46530	1000.82465	1293.10596	337.60361	779.82648	1369.12341	-87.82771	889.72272	358.01291	189.65842	794.42572	968.75879	-47.06208	877.00116	132.86414	-19.70340	1022.33502	84.75652	211.77504	759.27509	1523.29138	187.09380	957.10907	1325.16162	292.70190	920.33636	1264.44739	-58.13054	821.37018	1008.23535	41.71286	858.85980	1295.19922	-35.13001	814.20197	1757.11975	235.97673	590.70026	693.31812	108.97964	816.81738	1747.92847	-356.00571	696.92627	1150.13342	-330.39731	739.90411	1101.93433	-274.15170	657.92767	1472.71680	193.79076	496.47061	508.76895	104.55773	690.17694	1646.74866	-386.54272	649.91290	1265.36035	50.09745	674.09625	1533.25391	-313.78931	726.01886	1176.74438	193.39922	361.28848	378.26639	28.87489	815.23096	1470.90027	-1.92584	829.95746	110.38365	165.36395	249.50333	220.18341	-37.99410	699.12811	1659.66248	130.93692	621.20477	1371.33313	104.57030	209.74869	222.96034	69.75925	609.82111	1269.85205	-0.98389	609.88129	1062.13342	116.15811	603.40344	1056.52393				-3357.34644	2846.14795	1034.44104																									49.91025	701.45490	1808.28503			 
79	0.780	149.60306	302.21756	66.47243	-112.00993	765.37231	1527.31543	-382.56686	632.56140	1399.98694	377.52878	882.90509	1247.72241	166.70297	1054.58459	1368.46167	-111.43283	912.96320	738.94995	-76.99432	973.69580	545.18475	196.76448	1042.46899	1307.12366	337.03830	828.10559	1377.20557	-88.24799	946.40625	351.86853	188.82719	837.58478	974.14587	-45.11953	958.34979	126.02657	-12.19587	1107.37891	91.97401	207.94485	802.20886	1527.00366	183.02933	997.77631	1338.37292	290.40533	966.83282	1275.72229	-56.42675	864.21033	1013.62524	39.13920	898.88782	1299.97522	-37.36969	854.53369	1759.03076	236.63062	623.01294	702.50806	106.87453	856.35767	1749.53674	-347.95831	730.10706	1155.00842	-323.07047	775.60211	1109.05823	-271.54468	689.72833	1474.84839	195.95319	529.06439	518.48999	101.71733	729.09485	1649.38220	-379.97238	679.19611	1268.61560	50.24520	713.81030	1536.01624	-307.57422	759.93457	1183.65234	195.90695	391.00613	390.74957	25.47799	854.21057	1474.86304	-0.57928	913.71826	100.44270	169.05064	274.25323	236.32068	-40.71598	738.80908	1662.37805	134.27112	663.70502	1374.05127	109.14464	233.70053	239.55579	71.82834	651.26135	1271.72278	-1.76744	652.97717	1067.26709	115.03371	645.83435	1062.35242				-3357.21167	2846.06592	1034.33093																									47.16026	741.89984	1811.00037			 
80	0.790	160.52551	323.99442	83.17342	-111.89713	802.93079	1528.02795	-377.73401	660.36835	1399.20435	378.48300	931.50903	1254.00146	160.44061	1093.00867	1379.67810	-111.68578	951.84625	739.72479	-78.66670	1010.60297	542.60919	191.65062	1083.11206	1318.01990	335.94293	873.80066	1382.87317	-86.94961	996.89545	347.21854	187.87076	880.43048	978.48645	-43.83986	1035.36670	123.09515	-6.66546	1186.45154	100.81221	204.86691	844.65082	1529.24097	179.99393	1037.40479	1348.46399	288.25739	1012.00409	1284.37732	-54.43538	906.06421	1017.85474	36.02760	939.32166	1303.47656	-39.47688	894.81836	1760.26477	236.35950	657.30450	712.07190	104.21635	895.95746	1750.53357	-339.21982	765.42706	1157.68994	-314.92981	813.52515	1114.37415	-268.82813	721.29242	1474.44604	197.61755	566.01855	525.52374	99.17070	768.28149	1651.14783	-373.32275	710.26349	1268.96741	50.18072	753.24304	1537.49377	-300.65060	795.40912	1188.55457	198.36656	422.57373	402.20801	22.12060	893.64764	1477.16931	0.70450	993.22150	95.02365	168.60994	298.31662	253.92787	-43.23364	778.61389	1664.05713	137.48795	705.81519	1376.11597	106.60170	258.22610	253.83867	74.16824	692.76050	1272.63367	-2.39545	695.80890	1071.59412	113.77076	688.14124	1067.27014				-3360.32813	2845.24683	1034.25342																									44.81235	782.25500	1812.81274			 
81	0.800	172.31067	346.80939	100.99191	-112.28691	840.71796	1527.55591	-372.57504	689.68140	1395.07935	378.83612	977.77173	1257.83301	154.94633	1130.76672	1387.40198	-113.10878	991.16266	738.10455	-80.03932	1046.66675	538.87317	187.35278	1123.02393	1325.44983	334.50800	917.40747	1385.82227	-83.69268	1044.83569	342.60580	187.12305	922.99048	981.74536	-42.76330	1105.99084	122.96437	-4.82183	1259.43579	110.07554	202.91208	886.65979	1530.32910	177.46732	1076.53027	1355.37805	286.31903	1055.65527	1289.90222	-52.80968	947.75702	1021.07086	33.45243	978.72992	1305.42810	-41.42091	934.93268	1760.90869	235.85361	695.91565	721.94409	102.27048	935.72626	1751.44946	-329.88120	803.01349	1158.04150	-305.92038	853.71558	1117.94031	-266.39148	753.54321	1471.71863	199.27469	604.64465	530.33020	97.00050	807.69208	1652.31519	-365.17175	742.93341	1266.16016	50.08263	792.42487	1538.05457	-292.91711	832.76337	1191.16650	199.13435	456.13809	412.53235	19.35367	933.21558	1478.11475	2.89828	1066.86731	93.39374	165.50111	323.49487	271.61160	-45.35221	818.46753	1664.93103	140.12128	747.58032	1377.03882	101.13679	285.47659	267.32584	76.62868	734.22815	1273.14136	-3.02941	738.10620	1075.12378	112.53418	730.30719	1071.48059				-3357.42090	2845.86572	1034.61609																									42.87280	822.27203	1813.55383			 
